Coordinates
version=1
nRows=14
nColumns=24
inDegrees=yes

Units are S.I. units (second, meters, Newtons, ...)
Angles are in degrees.

endheader
time	pelvis_tilt	pelvis_list	pelvis_rotation	pelvis_tx	pelvis_ty	pelvis_tz	hip_flexion_r	hip_adduction_r	hip_rotation_r	knee_angle_r	ankle_angle_r	subtalar_angle_r	mtp_angle_r	hip_flexion_l	hip_adduction_l	hip_rotation_l	knee_angle_l	ankle_angle_l	subtalar_angle_l	mtp_angle_l	lumbar_extension	lumbar_bending	lumbar_rotation
      4.24000000	     13.86692612	     -4.76122331	      8.87182780	     -0.56704582	      0.92426084	     -0.23897339	    -28.99080487	     11.03212664	     -8.49247163	    -11.05327609	     23.00273527	      9.57402835	      0.00000000	      7.04795843	     -2.09225608	     11.16403187	     -4.53980030	     10.13173147	      2.51267009	      0.00000000	    -31.21371415	      6.94639831	     -0.42132953
      4.24500000	     13.77311009	     -4.41664411	      8.79447783	     -0.56037747	      0.92422739	     -0.23941230	    -28.95371686	     10.54255906	     -8.67622263	    -11.95020727	     22.80754629	     10.18032044	      0.00000000	      6.99201367	     -1.64714284	     11.16641354	     -5.02089902	     10.09306968	      2.14893080	      0.00000000	    -31.07210040	      6.53108687	     -0.54292529
      4.25000000	     13.70913431	     -4.03701724	      8.75442670	     -0.55369004	      0.92422613	     -0.23993100	    -28.93082907	     10.03026934	     -8.93052881	    -12.88799849	     22.58979543	     10.83902318	      0.00000000	      6.90385948	     -1.16004347	     11.23179720	     -5.56063782	     10.06075935	      1.73033189	      0.00000000	    -30.96280645	      6.10546512	     -0.71759149
      4.25500000	     13.65163177	     -3.63595678	      8.73592280	     -0.54697829	      0.92424393	     -0.24047229	    -28.89367622	      9.50373667	     -9.20625676	    -13.87186394	     22.32924703	     11.50041689	      0.00000000	      6.80416926	     -0.64831836	     11.31367269	     -6.14079773	     10.02827947	      1.29600848	      0.00000000	    -30.86086525	      5.66172029	     -0.91613774
      4.26000000	     13.63171531	     -3.22097024	      8.76467499	     -0.54026272	      0.92430653	     -0.24116686	    -28.87463378	      8.97021029	     -9.59633921	    -14.89914543	     21.99928188	     12.22018624	      0.00000000	      6.65920514	     -0.11454349	     11.47363056	     -6.74889351	      9.98677607	      0.81230302	      0.00000000	    -30.79602229	      5.25477891	     -1.16163999
      4.26500000	     13.53979671	     -2.78935032	      8.71237477	     -0.53346165	      0.92434872	     -0.24171077	    -28.76261744	      8.38466026	     -9.80388552	    -15.97260938	     21.65517763	     12.82413715	      0.00000000	      6.57796155	      0.43146200	     11.52981624	     -7.39378463	      9.93122102	      0.40907202	      0.00000000	    -30.65148072	      4.76520851	     -1.35016360
      4.27000000	     13.50500379	     -2.35590687	      8.74960049	     -0.52672495	      0.92441060	     -0.24245587	    -28.67805900	      7.81984562	    -10.17911449	    -17.10241554	     21.26671593	     13.54987896	      0.00000000	      6.43921640	      0.99181680	     11.72548283	     -8.05494990	      9.88370516	     -0.10157108	      0.00000000	    -30.57524346	      4.34272398	     -1.61128484
      4.27500000	     13.38171695	     -1.91740275	      8.65810359	     -0.51984428	      0.92446927	     -0.24296403	    -28.47265953	      7.19174842	    -10.36092392	    -18.29995383	     20.82245875	     14.08660484	      0.00000000	      6.35448078	      1.53794880	     11.71655776	     -8.68325930	      9.81942259	     -0.46261131	      0.00000000	    -30.39067222	      3.82352233	     -1.77701215
      4.28000000	     13.28124825	     -1.48766002	      8.59869981	     -0.51300523	      0.92454745	     -0.24362028	    -28.26478431	      6.56480446	    -10.60471268	    -19.53352029	     20.32253281	     14.74963317	      0.00000000	      6.25075883	      2.08679178	     11.79597308	     -9.33344564	      9.74021016	     -0.89782838	      0.00000000	    -30.23387365	      3.34864157	     -1.92590561
      4.28500000	     13.17994032	     -1.05381093	      8.54674287	     -0.50614595	      0.92463293	     -0.24427568	    -28.02468488	      5.93114493	    -10.86150035	    -20.82193181	     19.76843509	     15.34091990	      0.00000000	      6.12973234	      2.63495211	     11.86112126	     -9.95894495	      9.66291791	     -1.31218893	      0.00000000	    -30.07328154	      2.87687959	     -2.10405909
      4.29000000	     13.07926339	     -0.61334726	      8.51225155	     -0.49928986	      0.92471906	     -0.24497089	    -27.76473241	      5.29186774	    -11.10318269	    -22.13608534	     19.16926688	     15.95098260	      0.00000000	      6.00558693	      3.19412281	     11.98155044	    -10.59512084	      9.59222398	     -1.73358076	      0.00000000	    -29.91681787	      2.39969292	     -2.26947219
      4.29500000	     12.97486806	     -0.18326631	      8.46206356	     -0.49243148	      0.92482391	     -0.24564932	    -27.46317809	      4.64652126	    -11.33336523	    -23.50621092	     18.50836560	     16.48887361	      0.00000000	      5.86451482	      3.73450689	     12.06823951	    -11.18871071	      9.52678164	     -2.11372951	      0.00000000	    -29.75612328	      1.93186730	     -2.43185536
      4.30000000	     12.86808235	      0.24105575	      8.40199248	     -0.48557548	      0.92493430	     -0.24632647	    -27.12627341	      3.99215429	    -11.54854846	    -24.92050021	     17.80896468	     16.99209293	      0.00000000	      5.71145248	      4.26535347	     12.15339790	    -11.75538019	      9.47461770	     -2.48197597	      0.00000000	    -29.59158674	      1.46563385	     -2.57499199
      4.30500000	     12.76005808	      0.65892076	      8.32965801	     -0.47872867	      0.92506024	     -0.24699927	    -26.75468375	      3.33044610	    -11.74446232	    -26.37478085	     17.06246570	     17.43801943	      0.00000000	      5.54550682	      4.78475505	     12.22640909	    -12.29097886	      9.43616927	     -2.82547151	      0.00000000	    -29.42837837	      1.00451109	     -2.70223214
